<?xml version="1.0" encoding="utf-8"?>
<!-- Generator: Adobe Illustrator 23.0.1, SVG Export Plug-In . SVG Version: 6.00 Build 0)  -->
<svg version="1.1" id="Layer_1" xmlns="http://www.w3.org/2000/svg" xmlns:xlink="http://www.w3.org/1999/xlink" x="0px" y="0px"
	 viewBox="0 0 139.71 107.96" style="enable-background:new 0 0 139.71 107.96;" xml:space="preserve">
<g>
	<path d="M114.69,53.8c-1.05,0-1.91-0.85-1.91-1.91V11.18H27.03v18.48c0,1.05-0.85,1.91-1.91,1.91c-1.05,0-1.91-0.85-1.91-1.91V9.27
		c0-1.05,0.85-1.91,1.91-1.91h89.57c1.05,0,1.91,0.85,1.91,1.91v42.62C116.6,52.94,115.74,53.8,114.69,53.8z"/>
</g>
<g>
	<path d="M34.93,33.39c-1.05,0-1.91-0.85-1.91-1.91v-14.1c0-1.05,0.85-1.91,1.91-1.91h30.65c1.05,0,1.91,0.85,1.91,1.91v8.42
		c0,1.05-0.85,1.91-1.91,1.91c-1.05,0-1.91-0.85-1.91-1.91v-6.52H36.84v12.19C36.84,32.53,35.98,33.39,34.93,33.39z"/>
</g>
<g>
	<path d="M53.1,92.09H34.93c-1.05,0-1.91-0.85-1.91-1.91v-45.3c0-1.05,0.85-1.91,1.91-1.91c1.05,0,1.91,0.85,1.91,1.91v43.39H53.1
		c1.05,0,1.91,0.85,1.91,1.91C55.01,91.24,54.16,92.09,53.1,92.09z"/>
</g>
<g>
	<path d="M63.42,100.85H25.12c-1.05,0-1.91-0.85-1.91-1.91V41.08c0-1.05,0.85-1.91,1.91-1.91c1.05,0,1.91,0.85,1.91,1.91v55.96
		h34.48v-6.86c0-1.05,0.85-1.91,1.91-1.91h38.98V60.83H70.56c-1.05,0-1.91-0.85-1.91-1.91v-9.3c0-1.05,0.85-1.91,1.91-1.91h31.84
		V19.29H78.78c-1.05,0-1.91-0.85-1.91-1.91c0-1.05,0.85-1.91,1.91-1.91h25.53c1.05,0,1.91,0.85,1.91,1.91v32.24
		c0,1.05-0.85,1.91-1.91,1.91H72.46v5.49h31.84c1.05,0,1.91,0.85,1.91,1.91v31.26c0,1.05-0.85,1.91-1.91,1.91H65.32v6.86
		C65.32,100,64.47,100.85,63.42,100.85z"/>
</g>
<g>
	<path d="M114.69,100.85H72c-1.05,0-1.91-0.85-1.91-1.91c0-1.05,0.85-1.91,1.91-1.91h40.79V65.66c0-1.05,0.85-1.91,1.91-1.91
		c1.05,0,1.91,0.85,1.91,1.91v33.28C116.6,100,115.74,100.85,114.69,100.85z"/>
</g>
<g>
	<path d="M89.44,80.3H63.02c-8.63,0-15.38-5.24-15.38-11.93V43.42c0-6.69,6.76-11.93,15.39-11.93h26.41c1.93,0,3.5,1.57,3.5,3.5
		s-1.57,3.5-3.5,3.5H63.03c-4.94,0-8.39,2.6-8.39,4.93v24.95c0,2.33,3.44,4.93,8.38,4.93h26.42c1.93,0,3.5,1.57,3.5,3.5
		S91.37,80.3,89.44,80.3z"/>
</g>
</svg>
